<?xml version="1.0" encoding="UTF-8" standalone="no"?>
<svg xmlns="http://www.w3.org/2000/svg" xmlns:xlink="http://www.w3.org/1999/xlink"
       width="609px" height="564px" viewBox="-14 -26 609 564"
       font-family="Calibri, 'Segoe UI', Arial, sans-serif" font-size="10px">
    <rect x="-14" y="-26" width="609" height="564"
          fill="#FFFFFF"/>
    <!-- Diagram boundary (20-px margin around content) -->
    <rect x="-2" y="-14" width="585" height="540" fill="none" stroke="#000000" stroke-width="1"/>
    <!-- Pass 1: element bodies (parents first, then nested children on top) -->
    <clipPath id="clip-_AA5DB81A-A7FA-43ec-8EFB-298AE43DDB22_-0"><rect x="73" y="148" width="159" height="83"/></clipPath><rect x="73" y="148" width="159" height="83" fill="#FDFAF7" stroke="#9A8484" stroke-width="1"/><line x1="73" y1="165" x2="232" y2="165" stroke="#9A8484" stroke-width="1"/><line x1="73" y1="182" x2="232" y2="182" stroke="#9A8484" stroke-width="1"/>
<clipPath id="clip-_B0B78150-95A0-4228-80E2-38185A14C504_-1"><rect x="381" y="148" width="159" height="92"/></clipPath><rect x="381" y="148" width="159" height="92" fill="#FDFAF7" stroke="#9A8484" stroke-width="1"/><line x1="381" y1="165" x2="540" y2="165" stroke="#9A8484" stroke-width="1"/>
<clipPath id="clip-_33E5054A-5133-4a91-AB5D-A468A3079578_-2"><rect x="18" y="260" width="181" height="167"/></clipPath><rect x="18" y="260" width="181" height="167" fill="#FDFAF7" stroke="#9A8484" stroke-width="1"/><line x1="18" y1="277" x2="199" y2="277" stroke="#9A8484" stroke-width="1"/><line x1="18" y1="320" x2="199" y2="320" stroke="#9A8484" stroke-width="1"/>
<clipPath id="clip-_C4A67E2C-EC26-4115-AF91-309CBD1DED58_-3"><rect x="466" y="319" width="97" height="50"/></clipPath><rect x="466" y="319" width="97" height="50" fill="#FDFAF7" stroke="#9A8484" stroke-width="1"/>
<clipPath id="clip-_D99870F7-C59C-4ed4-8B8E-64ECB21CF000_-5"><rect x="212" y="22" width="90" height="49"/></clipPath><rect x="212" y="22" width="90" height="49" fill="#FDFAF7" stroke="#9A8484" stroke-width="1"/><line x1="212" y1="39" x2="302" y2="39" stroke="#9A8484" stroke-width="1"/>
<clipPath id="clip-_AC0B3113-9A8B-4a1d-AA0F-C93DF577E5F6_-6"><rect x="337" y="11" width="123" height="70"/></clipPath><rect x="337" y="11" width="123" height="70" fill="#F1ECFA" stroke="#9A8484" stroke-width="1"/><line x1="337" y1="41" x2="460" y2="41" stroke="#9A8484" stroke-width="1"/>
<clipPath id="clip-_56FAB144-4A28-4fe5-B20D-2EC87D1382BB_-7"><rect x="351" y="424" width="90" height="82"/></clipPath><rect x="351" y="424" width="90" height="82" fill="#FAF9E6" stroke="#9A8484" stroke-width="1"/><line x1="351" y1="454" x2="441" y2="454" stroke="#9A8484" stroke-width="1"/>
<clipPath id="clip-_B2F68515-A003-4cfb-BBCB-36DAA38C0FCB_-8"><rect x="473" y="424" width="90" height="82"/></clipPath><rect x="473" y="424" width="90" height="82" fill="#E8FDE3" stroke="#9A8484" stroke-width="1"/><line x1="473" y1="454" x2="563" y2="454" stroke="#9A8484" stroke-width="1"/>

    <!-- Pass 1b: Note bodies + text — above other elements, below connectors -->
    <clipPath id="clip-_9CDB1996-DF4A-49c3-BDC9-B77FF0697DD1_-4"><polygon points="18,455 317,455 327,465 327,504 18,504"/></clipPath><polygon points="18,455 317,455 327,465 327,504 18,504" fill="#FFFFFF" stroke="#658a99" stroke-width="1"/><polygon points="317,455 317,465 327,465" fill="#FFFFFF" stroke="#658a99" stroke-width="1"/>

    <foreignObject x="22" y="459" width="301" height="41" clip-path="url(#clip-_9CDB1996-DF4A-49c3-BDC9-B77FF0697DD1_-4)"><div xmlns="http://www.w3.org/1999/xhtml" class="ea-link" data-guid="{9CDB1996-DF4A-49c3-BDC9-B77FF0697DD1}" style="margin:0;padding:0;font-family:Calibri,'Segoe UI',Arial,sans-serif;font-size:10px;color:#000000;overflow:hidden;box-sizing:border-box;width:301px;height:41px;word-wrap:break-word;">This example is inspired by this tutorial:<br/>https://sparxsystems.com/resources/tutorials/uml2/class-diagram.html</div></foreignObject>

    <!-- Pass 2: connectors (between elements and labels) -->
    <polyline points="535.3239436619718,369 535,415 385,415 385,399 199,399.3363471971067" fill="none" stroke="#69738C" stroke-width="1"/><g transform="translate(535.3239436619718,369) rotate(-89.59651526494125)"><polygon points="-16,0 -8,-5 0,0 -8,5" fill="#FFFFFF" stroke="#69738C" stroke-width="1"/></g>
<polyline points="466,334 466,334 406,334 406,355 466,355 466,355" fill="none" stroke="#69738C" stroke-width="1"/><g transform="translate(466,334) rotate(0)"><polygon points="-16,0 -8,-5 0,0 -8,5" fill="#FFFFFF" stroke="#69738C" stroke-width="1"/></g>
<line x1="506.9567901234568" y1="240" x2="485.5" y2="319" stroke="#69738C" stroke-width="1"/><g transform="translate(506.9567901234568,240) rotate(-74.80475147318012)"><polygon points="-16,0 -8,-5 0,0 -8,5" fill="#69738C" stroke="#69738C" stroke-width="1"/></g>
<polyline points="199,282.2450704225352 286,282 286,229 381,229" fill="none" stroke="#69738C" stroke-width="1"/><g transform="translate(381,229) rotate(0)"><polygon points="-16,0 -8,-5 0,0 -8,5" fill="#69738C" stroke="#69738C" stroke-width="1"/></g>
<line x1="232" y1="170.51490066225165" x2="381" y2="174.95529801324503" stroke="#69738C" stroke-width="1"/><g transform="translate(232,170.51490066225165) rotate(-178.29301509764528)"><polygon points="-16,0 -8,-5 0,0 -8,5" fill="#FFFFFF" stroke="#69738C" stroke-width="1"/></g>
<polyline points="152.1970802919708,148 152,121 257,121 254.31543624161074,71" fill="none" stroke="#69738C" stroke-width="1"/><g transform="translate(254.31543624161074,71) rotate(-93.07333251107337)"><polygon points="-10,-6 0,0 -10,6" fill="#FFFFFF" stroke="#69738C" stroke-width="1"/></g>
<polyline points="460.1849315068493,148 460,121 257,121 254.31543624161074,71" fill="none" stroke="#69738C" stroke-width="1"/><g transform="translate(254.31543624161074,71) rotate(-93.07333251107337)"><polygon points="-10,-6 0,0 -10,6" fill="#FFFFFF" stroke="#69738C" stroke-width="1"/></g>
<line x1="302" y1="46.340989399293285" x2="337" y2="46.21731448763251" stroke="#69738C" stroke-width="1" stroke-dasharray="6,3"/><g transform="translate(337,46.21731448763251) rotate(-0.2024577422181953)"><polygon points="-10,-6 0,0 -10,6" fill="#FFFFFF" stroke="#69738C" stroke-width="1"/></g>
<polyline points="31.309576837416483,260 31,121 257,121 257,71" fill="none" stroke="#69738C" stroke-width="1"/><g transform="translate(257,71) rotate(-90)"><polygon points="-10,-6 0,0 -10,6" fill="#FFFFFF" stroke="#69738C" stroke-width="1"/></g>
<polyline points="554.4419642857143,319 554,121 257,121 257,71" fill="none" stroke="#69738C" stroke-width="1"/><g transform="translate(257,71) rotate(-90)"><polygon points="-10,-6 0,0 -10,6" fill="#FFFFFF" stroke="#69738C" stroke-width="1"/></g>
    <!-- Pass 3: all labels (on top of everything else) -->
    <text class="ea-link" data-guid="{AA5DB81A-A7FA-43ec-8EFB-298AE43DDB22}" x="152.5" y="161" text-anchor="middle" fill="#595959" font-size="10" font-weight="700" clip-path="url(#clip-_AA5DB81A-A7FA-43ec-8EFB-298AE43DDB22_-0)">Account</text><text class="ea-link" data-guid="{14FB9C67-45BE-451f-8B3E-73D08AAF01FE}" x="78" y="178" text-anchor="start" fill="#66413F" font-size="10" clip-path="url(#clip-_AA5DB81A-A7FA-43ec-8EFB-298AE43DDB22_-0)">#emailAddress: String</text><text class="ea-link" data-guid="{3515A812-DB12-4f7d-933E-323B68EC7F5D}" x="78" y="195" text-anchor="start" fill="#455633" font-size="10" clip-path="url(#clip-_AA5DB81A-A7FA-43ec-8EFB-298AE43DDB22_-0)">+getEmailAddress(): String</text><text class="ea-link" data-guid="{4EEF2546-DCA6-4157-A5B3-E15F8C27C83F}" x="78" y="208" text-anchor="start" fill="#455633" font-size="10" clip-path="url(#clip-_AA5DB81A-A7FA-43ec-8EFB-298AE43DDB22_-0)">+setEmailAddress(String): void</text>
<text class="ea-link" data-guid="{B0B78150-95A0-4228-80E2-38185A14C504}" x="460.5" y="161" text-anchor="middle" fill="#595959" font-size="10" font-weight="700" clip-path="url(#clip-_B0B78150-95A0-4228-80E2-38185A14C504_-1)">AddressBook</text><text class="ea-link" data-guid="{F4D150D0-FA4E-4248-B7D9-47F854D71164}" x="386" y="178" text-anchor="start" fill="#455633" font-size="10" clip-path="url(#clip-_B0B78150-95A0-4228-80E2-38185A14C504_-1)">+getContact(): Contact</text><text class="ea-link" data-guid="{04D1F178-A41B-4c6f-AD74-88470FEDE15E}" x="386" y="191" text-anchor="start" fill="#455633" font-size="10" clip-path="url(#clip-_B0B78150-95A0-4228-80E2-38185A14C504_-1)">+getContacts(): Contact</text><text class="ea-link" data-guid="{A753C6E4-2DA9-45d2-950E-995D6015545D}" x="386" y="204" text-anchor="start" fill="#455633" font-size="10" clip-path="url(#clip-_B0B78150-95A0-4228-80E2-38185A14C504_-1)">+insertContact(Contact): void</text>
<text class="ea-link" data-guid="{33E5054A-5133-4a91-AB5D-A468A3079578}" x="108.5" y="273" text-anchor="middle" fill="#595959" font-size="10" font-weight="700" clip-path="url(#clip-_33E5054A-5133-4a91-AB5D-A468A3079578_-2)">Contact</text><text class="ea-link" data-guid="{6E3BDFDF-1E29-4e45-8DBD-156D32CFD89B}" x="23" y="290" text-anchor="start" fill="#66413F" font-size="10" clip-path="url(#clip-_33E5054A-5133-4a91-AB5D-A468A3079578_-2)">#emailAddress: String</text><text class="ea-link" data-guid="{D3CC13BB-36A2-43e1-BC48-B6A1ABA85C83}" x="23" y="303" text-anchor="start" fill="#66413F" font-size="10" clip-path="url(#clip-_33E5054A-5133-4a91-AB5D-A468A3079578_-2)">#address: Address</text><text class="ea-link" data-guid="{2713FA1C-BDAA-4795-813C-92551D98E961}" x="23" y="316" text-anchor="start" fill="#66413F" font-size="10" clip-path="url(#clip-_33E5054A-5133-4a91-AB5D-A468A3079578_-2)">#gender: Gender</text><text class="ea-link" data-guid="{841F7944-B6C3-4b50-9B98-CD6EB67BED1E}" x="23" y="333" text-anchor="start" fill="#455633" font-size="10" clip-path="url(#clip-_33E5054A-5133-4a91-AB5D-A468A3079578_-2)">+getEmailAddress(): String</text><text class="ea-link" data-guid="{8053C88B-3C22-455d-8A71-596FA634A5A5}" x="23" y="346" text-anchor="start" fill="#455633" font-size="10" clip-path="url(#clip-_33E5054A-5133-4a91-AB5D-A468A3079578_-2)">+getGender(): Gender</text><text class="ea-link" data-guid="{F4B30497-D565-4704-BFF9-D8CD17F7133C}" x="23" y="359" text-anchor="start" fill="#455633" font-size="10" clip-path="url(#clip-_33E5054A-5133-4a91-AB5D-A468A3079578_-2)">+getAddress(): Address</text><text class="ea-link" data-guid="{A178022C-BD87-44b9-8B05-90AD892C854F}" x="23" y="372" text-anchor="start" fill="#455633" font-size="10" clip-path="url(#clip-_33E5054A-5133-4a91-AB5D-A468A3079578_-2)">+setEmailAddress(String): void</text><text class="ea-link" data-guid="{B757860B-A99F-47c7-83C4-657DD439197B}" x="23" y="385" text-anchor="start" fill="#455633" font-size="10" clip-path="url(#clip-_33E5054A-5133-4a91-AB5D-A468A3079578_-2)">+setGender(Gender): void</text><text class="ea-link" data-guid="{F1515D3D-8E06-4336-A634-32B18DAC79C9}" x="23" y="398" text-anchor="start" fill="#455633" font-size="10" clip-path="url(#clip-_33E5054A-5133-4a91-AB5D-A468A3079578_-2)">+setAddress(Address): void</text>
<text class="ea-link" data-guid="{C4A67E2C-EC26-4115-AF91-309CBD1DED58}" x="514.5" y="332" text-anchor="middle" fill="#595959" font-size="10" font-weight="700" clip-path="url(#clip-_C4A67E2C-EC26-4115-AF91-309CBD1DED58_-3)">ContactGroup</text>
<text class="ea-link" data-guid="{D99870F7-C59C-4ed4-8B8E-64ECB21CF000}" x="257" y="35" text-anchor="middle" fill="#595959" font-size="10" font-weight="700" font-style="italic" clip-path="url(#clip-_D99870F7-C59C-4ed4-8B8E-64ECB21CF000_-5)">NamedElement</text><text class="ea-link" data-guid="{8AF943D9-415D-442e-BB6F-2401243CA7A4}" x="217" y="52" text-anchor="start" fill="#66413F" font-size="10" clip-path="url(#clip-_D99870F7-C59C-4ed4-8B8E-64ECB21CF000_-5)">#name: String</text>
<text x="398.5" y="24" text-anchor="middle" fill="#595959" font-size="10" clip-path="url(#clip-_AC0B3113-9A8B-4a1d-AA0F-C93DF577E5F6_-6)">«interface»</text><text class="ea-link" data-guid="{AC0B3113-9A8B-4a1d-AA0F-C93DF577E5F6}" x="398.5" y="37" text-anchor="middle" fill="#595959" font-size="10" font-weight="700" font-style="italic" clip-path="url(#clip-_AC0B3113-9A8B-4a1d-AA0F-C93DF577E5F6_-6)">INamedElement</text><text class="ea-link" data-guid="{455DF901-2A26-4e0e-A9A4-5C38A38BEFE7}" x="342" y="54" text-anchor="start" fill="#455633" font-size="10" clip-path="url(#clip-_AC0B3113-9A8B-4a1d-AA0F-C93DF577E5F6_-6)">+getName(): String</text><text class="ea-link" data-guid="{EC70612C-05F2-4a5d-B060-8A56B81D7960}" x="342" y="67" text-anchor="start" fill="#455633" font-size="10" clip-path="url(#clip-_AC0B3113-9A8B-4a1d-AA0F-C93DF577E5F6_-6)">+setName(String): void</text>
<text x="396" y="437" text-anchor="middle" fill="#595959" font-size="10" clip-path="url(#clip-_56FAB144-4A28-4fe5-B20D-2EC87D1382BB_-7)">«dataType»</text><text class="ea-link" data-guid="{56FAB144-4A28-4fe5-B20D-2EC87D1382BB}" x="396" y="450" text-anchor="middle" fill="#595959" font-size="10" font-weight="700" clip-path="url(#clip-_56FAB144-4A28-4fe5-B20D-2EC87D1382BB_-7)">Address</text><text class="ea-link" data-guid="{4D8B1029-D71E-4b4a-A3CE-A659639D596D}" x="356" y="467" text-anchor="start" fill="#66413F" font-size="10" clip-path="url(#clip-_56FAB144-4A28-4fe5-B20D-2EC87D1382BB_-7)">+city: String</text><text class="ea-link" data-guid="{3B4E4B57-5BB7-48f4-94E9-8393787A71AF}" x="356" y="480" text-anchor="start" fill="#66413F" font-size="10" clip-path="url(#clip-_56FAB144-4A28-4fe5-B20D-2EC87D1382BB_-7)">+zip: int</text><text class="ea-link" data-guid="{2D1FD17D-0BC5-4761-AB94-7F23574F9D94}" x="356" y="493" text-anchor="start" fill="#66413F" font-size="10" clip-path="url(#clip-_56FAB144-4A28-4fe5-B20D-2EC87D1382BB_-7)">+street: String</text>
<text x="518" y="437" text-anchor="middle" fill="#595959" font-size="10" clip-path="url(#clip-_B2F68515-A003-4cfb-BBCB-36DAA38C0FCB_-8)">«enumeration»</text><text class="ea-link" data-guid="{B2F68515-A003-4cfb-BBCB-36DAA38C0FCB}" x="518" y="450" text-anchor="middle" fill="#595959" font-size="10" font-weight="700" clip-path="url(#clip-_B2F68515-A003-4cfb-BBCB-36DAA38C0FCB_-8)">Gender</text><text class="ea-link" data-guid="{AFD55E85-86DC-4933-8788-FB733032E689}" x="478" y="467" text-anchor="start" fill="#66413F" font-size="10" clip-path="url(#clip-_B2F68515-A003-4cfb-BBCB-36DAA38C0FCB_-8)">+female = 1</text><text class="ea-link" data-guid="{AFE6B18A-B875-4781-8431-93EFEB375E25}" x="478" y="480" text-anchor="start" fill="#66413F" font-size="10" clip-path="url(#clip-_B2F68515-A003-4cfb-BBCB-36DAA38C0FCB_-8)">+male = 2</text><text class="ea-link" data-guid="{2F9BB5E7-9C1D-413a-ACC1-683BB271CBDF}" x="478" y="493" text-anchor="start" fill="#66413F" font-size="10" clip-path="url(#clip-_B2F68515-A003-4cfb-BBCB-36DAA38C0FCB_-8)">+other = 3</text>

    <text x="536.3239436619718" y="378" text-anchor="start" fill="#595959" font-size="9">+GroupedBy</text><text x="539.3239436619718" y="402" text-anchor="start" fill="#595959" font-size="9">0..*</text><text x="196" y="391.3363471971067" text-anchor="end" fill="#595959" font-size="9">#Contains</text><text x="196" y="414.3363471971067" text-anchor="end" fill="#595959" font-size="9">0..*</text>
<text x="437" y="324" text-anchor="start" fill="#595959" font-size="9">+Parent</text><text x="460" y="368" text-anchor="end" fill="#595959" font-size="9">#Child</text>
<text x="503.9567901234568" y="240" text-anchor="start" fill="#595959" font-size="9">-IsContainedIn</text><text x="518.9567901234568" y="264" text-anchor="start" fill="#595959" font-size="9">1</text><text x="478.5" y="308" text-anchor="end" fill="#595959" font-size="9">+Contains</text><text x="478.5" y="323" text-anchor="end" fill="#595959" font-size="9">0..*</text>
<text x="202" y="274.2450704225352" text-anchor="start" fill="#595959" font-size="9">-Contains</text><text x="202" y="297.2450704225352" text-anchor="start" fill="#595959" font-size="9">0..*</text><text x="371" y="220" text-anchor="end" fill="#595959" font-size="9">+IsContainedIn</text>
<text x="235" y="162.51490066225165" text-anchor="start" fill="#595959" font-size="9">+IsAccessedBy</text><text x="236" y="187.51490066225165" text-anchor="start" fill="#595959" font-size="9">1</text><text x="377" y="166.95529801324503" text-anchor="end" fill="#595959" font-size="9">#Uses</text><text x="378" y="189.95529801324503" text-anchor="end" fill="#595959" font-size="9">0..*</text>





    <!-- Diagram decorations (title + experimental-feature disclaimer) — drawn
         last so they always sit above element content. -->
    <polygon points="-2,6 140,6 154,-8 154,-14 -2,-14" fill="#FFFFFF" stroke="#000000" stroke-width="1"/><text x="3" y="0" fill="#000000" font-size="10" font-weight="700">Logical ClassDiagram</text>
    <text x="3" y="521" fill="#A8A8A8" font-size="10" font-style="italic">(diagram rendering is an experimental feature)</text>
  </svg>
